<svg xmlns="http://www.w3.org/2000/svg" width="111.637" height="119.485" viewBox="0 0 111.637 119.485"><g transform="translate(-8.615 -4.8)"><g transform="translate(8.615 4.8)"><path d="M67.505,321.571c-18.614,0-35.336-11.779-40.86-28.609-1.763-6.878-7.329-15.11-15.218-22.7-1.44-1.376-3.7-4.062-2.45-6.685.946-2.085,3.826-3.525,6.706-3.353C22.067,260.592,27.032,265,27.1,265a3.116,3.116,0,0,0,5.331-2.149V256.1l60.4,57.582A44.7,44.7,0,0,1,67.505,321.571Z" transform="translate(-8.615 -202.086)" fill="#edc84b"/><path d="M119.1,50.324V23.564a7.468,7.468,0,0,1,14.917-.064V57.74a3.142,3.142,0,0,0,6.276,0V11.915a7.467,7.467,0,0,1,14.917,0V58.342a3.142,3.142,0,0,0,6.276,0V26.853a7.472,7.472,0,0,1,14.917-.064V56.966a3.142,3.142,0,0,0,6.276,0v-19.6c.43-3.117,3.632-5.739,7.265-5.739a6.63,6.63,0,0,1,6.835,6.384V83.726h0A39.385,39.385,0,0,1,184.248,112.4Z" transform="translate(-95.352 -4.8)" fill="#edc84b"/></g><g transform="translate(9.751 75.537)"><path d="M122.681,357.178H15.62a1.725,1.725,0,0,1-1.72-1.72V335.62a1.725,1.725,0,0,1,1.72-1.72H122.681a1.725,1.725,0,0,1,1.72,1.72v19.839A1.725,1.725,0,0,1,122.681,357.178Z" transform="translate(-13.9 -333.9)" fill="#073e70"/><g transform="translate(4.428 3.138)"><path d="M34.5,379.194l2.88-1.44a2.486,2.486,0,0,0,2.536,1.72,2.1,2.1,0,0,0,2.235-2.214c0-1.333-.881-2.257-2.558-2.257a5.1,5.1,0,0,0-3.246,1.182l-.3-.129V367.2h8.3v2.751H38.8v2.665a4.035,4.035,0,0,1,1.784-.365,4.912,4.912,0,0,1,5.094,5.051c0,2.708-1.827,5.094-5.7,5.094A5.6,5.6,0,0,1,34.5,379.194Z" transform="translate(-34.5 -363.181)" fill="#fff"/><path d="M96.6,377.415h3.289l-.064,1.7a3.52,3.52,0,0,1,3.289-1.913c2.257,0,3.89,1.655,3.89,4.578v5.975h-3.289v-5.739a1.592,1.592,0,0,0-1.741-1.827,1.9,1.9,0,0,0-2.106,2.042v5.524H96.6Z" transform="translate(-83.252 -371.031)" fill="#fff"/><path d="M159.029,352.488H154.3V349.5h12.875v2.988h-4.729v13.52h-3.418Z" transform="translate(-128.55 -349.285)" fill="#fff"/><path d="M216.865,348.8h.3l7.587,16.636h-3.59l-.774-1.87h-6.728l-.774,1.87H209.6Zm2.278,11.929-1.2-2.859c-.494-1.161-1.01-2.966-1.01-2.966s-.494,1.805-.967,2.966l-1.2,2.859Z" transform="translate(-171.964 -348.736)" fill="#fff"/><path d="M281,357.047a8.334,8.334,0,0,1,8.533-8.447,7.279,7.279,0,0,1,6.642,3.375l-2.6,1.848a4.5,4.5,0,0,0-4.019-2.149c-3.009,0-5.03,2.3-5.03,5.4,0,3.074,2.02,5.438,5.03,5.438a4.744,4.744,0,0,0,4.277-2.429L296.5,361.9a7.812,7.812,0,0,1-6.921,3.632A8.419,8.419,0,0,1,281,357.047Z" transform="translate(-228.017 -348.579)" fill="#fff"/><path d="M365.029,352.488H360.3V349.5h12.875v2.988h-4.729v13.52h-3.418Z" transform="translate(-290.273 -349.285)" fill="#fff"/><path d="M424.7,356.969a8.577,8.577,0,1,1,8.576,8.469A8.375,8.375,0,0,1,424.7,356.969Zm13.67,0c0-3.074-2.042-5.438-5.073-5.438s-5.073,2.343-5.073,5.438c0,3.074,2.042,5.438,5.073,5.438A5.107,5.107,0,0,0,438.37,356.969Z" transform="translate(-340.83 -348.5)" fill="#fff"/></g></g></g></svg>