<svg xmlns="http://www.w3.org/2000/svg" width="377.512" height="63.454" viewBox="0 0 377.512 63.454"><g transform="translate(1170.012 388.894)"><g transform="translate(-1069.399 -378)"><path d="M11.589,689.721a9.447,9.447,0,0,1-3.988-.81l1.142-3.074a5.779,5.779,0,0,0,2.679.706c1.121,0,1.744-.582,1.744-1.391,0-2.119-5.378-1.869-5.378-6.334,0-2.782,1.828-4.631,5-4.631a7.676,7.676,0,0,1,3.614.81l-1.08,2.825a4.893,4.893,0,0,0-2.368-.623c-1.038,0-1.64.582-1.64,1.391,0,2.139,5.482,2.014,5.482,6.355C16.8,687.748,14.973,689.721,11.589,689.721Z" transform="translate(-7.601 -673.191)" fill="#fff"/><path d="M27.481,683.92l-6.978.914a2.485,2.485,0,0,0,2.721,1.829,7.509,7.509,0,0,0,3.156-.687l.956,2.534a11.215,11.215,0,0,1-4.382.809c-3.883,0-5.793-2.533-5.793-5.857,0-3.425,1.993-5.834,5.358-5.834,3.26,0,5,2.18,5,5.254A8.7,8.7,0,0,1,27.481,683.92Zm-5.046-3.882c-1.2,0-2.138.83-2.159,2.678l3.945-.5C24.221,680.805,23.536,680.038,22.435,680.038Z" transform="translate(-6.488 -672.79)" fill="#fff"/><path d="M33.972,680.536a3.846,3.846,0,0,0-1.267-.208,3.217,3.217,0,0,0-1.163.188v8.555H28.115V678.438a13.706,13.706,0,0,1,4.86-.809,10.452,10.452,0,0,1,1.619.124Z" transform="translate(-5.212 -672.79)" fill="#fff"/><path d="M42.394,689.045H38.428L34.42,677.852h3.862l1.724,6.459c.125.435.27,1.225.374,1.869h.041c.1-.623.27-1.412.4-1.869l1.723-6.459H46.4Z" transform="translate(-4.478 -672.764)" fill="#fff"/><path d="M48.045,676.845a1.779,1.779,0,1,1,0-3.55,1.78,1.78,0,1,1,0,3.55Zm-1.7,12.731V678.383h3.426v11.193Z" transform="translate(-3.112 -673.295)" fill="#fff"/><path d="M56.213,689.32c-2.742,0-5.13-1.932-5.13-5.857s2.388-5.834,5.13-5.834a5.641,5.641,0,0,1,3.072.768l-1.058,2.429a2.468,2.468,0,0,0-1.475-.415c-1.287,0-2.118,1.122-2.118,3.011s.913,3.032,2.118,3.032a2.461,2.461,0,0,0,1.475-.415l1.058,2.513A5.642,5.642,0,0,1,56.213,689.32Z" transform="translate(-2.538 -672.79)" fill="#fff"/><path d="M61.621,676.845a1.779,1.779,0,1,1,0-3.55,1.78,1.78,0,1,1,0,3.55Zm-1.7,12.731V678.383h3.427v11.193Z" transform="translate(-1.531 -673.295)" fill="#fff"/><path d="M69.913,689.32c-3.344,0-5.254-2.513-5.254-5.857s1.91-5.834,5.254-5.834,5.254,2.492,5.254,5.834S73.257,689.32,69.913,689.32Zm0-9.033c-1.2,0-1.828,1.08-1.828,3.135s.623,3.156,1.828,3.156,1.828-1.1,1.828-3.156S71.118,680.287,69.913,680.287Z" transform="translate(-0.957 -672.79)" fill="#fff"/><path d="M78.985,689.32a8.728,8.728,0,0,1-3.8-.809l1.081-2.576a6.019,6.019,0,0,0,2.616.707c.789,0,1.288-.374,1.288-.936,0-.643-.623-.913-1.434-1.2-1.329-.478-3.26-1.163-3.26-3.448,0-2.1,1.6-3.426,4.34-3.426a8.067,8.067,0,0,1,3.635.809l-1.018,2.305a4.287,4.287,0,0,0-2.159-.623c-.811,0-1.288.374-1.288.914,0,.747.872,1.037,1.516,1.266,1.371.5,3.24,1.142,3.24,3.426C83.741,687.928,82.163,689.32,78.985,689.32Z" transform="translate(0.268 -672.79)" fill="#fff"/></g><g transform="translate(-978.58 -378)"><path d="M93.6,683.948a9.061,9.061,0,0,1-1.185-.084v5.608H88.948V675a11.683,11.683,0,0,1,4.568-.81c3.9,0,6.022,1.931,6.022,4.922C99.539,681.893,97.566,683.948,93.6,683.948Zm-.042-7.123a4.175,4.175,0,0,0-1.142.166v4.236a6.26,6.26,0,0,0,1.018.084c1.765,0,2.637-.789,2.637-2.2C96.071,677.552,95.219,676.825,93.558,676.825Z" transform="translate(-88.948 -673.17)" fill="#fff"/><path d="M104.486,689.32c-3.343,0-5.254-2.513-5.254-5.857s1.911-5.834,5.254-5.834,5.254,2.492,5.254,5.834S107.83,689.32,104.486,689.32Zm0-9.033c-1.2,0-1.826,1.08-1.826,3.135s.623,3.156,1.826,3.156,1.828-1.1,1.828-3.156S105.691,680.287,104.486,680.287Z" transform="translate(-87.751 -672.769)" fill="#fff"/><path d="M113.558,689.32a8.723,8.723,0,0,1-3.8-.809l1.08-2.576a6.024,6.024,0,0,0,2.617.707c.789,0,1.287-.374,1.287-.936,0-.643-.623-.913-1.434-1.2-1.329-.478-3.26-1.163-3.26-3.448,0-2.1,1.6-3.426,4.341-3.426a8.066,8.066,0,0,1,3.634.809l-1.018,2.305a4.287,4.287,0,0,0-2.159-.623c-.809,0-1.288.374-1.288.914,0,.747.873,1.037,1.516,1.266,1.371.5,3.24,1.142,3.24,3.426C118.314,687.928,116.737,689.32,113.558,689.32Z" transform="translate(-86.525 -672.769)" fill="#fff"/><path d="M123.038,689.578c-2.326,0-3.3-1.266-3.3-3.779v-5.047h-1.329V678.2h1.329V675.81l3.344-.934V678.2h1.952v2.553h-1.952v4.8c0,.769.457,1.018,1.1,1.018a2.058,2.058,0,0,0,.851-.188v2.826A5.139,5.139,0,0,1,123.038,689.578Z" transform="translate(-85.518 -673.09)" fill="#fff"/><path d="M130.9,689.32c-3.531,0-5.275-1.307-5.275-3.7,0-2.969,3.031-3.655,6.416-3.842v-.435c0-.893-.623-1.308-1.785-1.308a9.269,9.269,0,0,0-3.177.684l-.831-2.284a12.847,12.847,0,0,1,4.423-.809c3.052,0,4.589,1.163,4.589,4.133v6.749A10.843,10.843,0,0,1,130.9,689.32Zm1.141-5.4c-1.848.085-3.239.291-3.239,1.621,0,.913.768,1.411,1.993,1.411a4.517,4.517,0,0,0,1.246-.165Z" transform="translate(-84.678 -672.769)" fill="#fff"/><path d="M136.28,689.578v-16.3h3.426v16.3Z" transform="translate(-83.437 -673.276)" fill="#fff"/><path d="M151.361,683.92l-6.978.914a2.484,2.484,0,0,0,2.721,1.829,7.512,7.512,0,0,0,3.156-.687l.956,2.534a11.215,11.215,0,0,1-4.382.809c-3.883,0-5.794-2.533-5.794-5.857,0-3.425,1.994-5.834,5.359-5.834,3.26,0,5,2.18,5,5.254A8.7,8.7,0,0,1,151.361,683.92Zm-5.046-3.882c-1.2,0-2.139.83-2.16,2.678l3.947-.5C148.1,680.805,147.416,680.038,146.315,680.038Z" transform="translate(-82.882 -672.769)" fill="#fff"/><path d="M155.237,689.32a8.724,8.724,0,0,1-3.8-.809l1.08-2.576a6.024,6.024,0,0,0,2.617.707c.788,0,1.287-.374,1.287-.936,0-.643-.623-.913-1.432-1.2-1.33-.478-3.26-1.163-3.26-3.448,0-2.1,1.6-3.426,4.34-3.426a8.063,8.063,0,0,1,3.634.809l-1.017,2.305a4.294,4.294,0,0,0-2.16-.623c-.809,0-1.287.374-1.287.914,0,.747.872,1.037,1.516,1.266,1.37.5,3.239,1.142,3.239,3.426C159.992,687.928,158.415,689.32,155.237,689.32Z" transform="translate(-81.672 -672.769)" fill="#fff"/></g><g transform="translate(-893.515 -378)"><path d="M16.614,708.93l-4.568-7.808a16.244,16.244,0,0,1-.914-1.806H11.09c.021.374.041,1.038.041,2.015v7.6H8.141V693.9h2.928l4.443,7.559a13.426,13.426,0,0,1,.893,1.806h.041c0-.415-.021-1.08-.021-2.075V693.9h2.991V708.93Z" transform="translate(-8.141 -692.629)" fill="#fff"/><path d="M25.188,708.805c-3.53,0-5.275-1.308-5.275-3.7,0-2.969,3.032-3.654,6.417-3.841v-.436c0-.893-.623-1.309-1.786-1.309a9.274,9.274,0,0,0-3.177.686l-.83-2.284a12.811,12.811,0,0,1,4.423-.811c3.051,0,4.589,1.163,4.589,4.133v6.749A10.828,10.828,0,0,1,25.188,708.805Zm1.142-5.4c-1.849.084-3.24.291-3.24,1.62,0,.913.769,1.412,1.994,1.412a4.517,4.517,0,0,0,1.246-.166Z" transform="translate(-6.77 -692.254)" fill="#fff"/><path d="M35.346,708.805c-2.741,0-5.129-1.933-5.129-5.857s2.388-5.836,5.129-5.836a5.633,5.633,0,0,1,3.074.769l-1.058,2.428a2.476,2.476,0,0,0-1.475-.415c-1.288,0-2.119,1.122-2.119,3.012s.914,3.031,2.119,3.031a2.461,2.461,0,0,0,1.475-.415l1.058,2.513A5.634,5.634,0,0,1,35.346,708.805Z" transform="translate(-5.571 -692.254)" fill="#fff"/><path d="M40.754,696.33a1.779,1.779,0,1,1,0-3.551,1.781,1.781,0,1,1,0,3.551Zm-1.7,12.73V697.868h3.426V709.06Z" transform="translate(-4.564 -692.759)" fill="#fff"/><path d="M49.047,708.805c-3.344,0-5.254-2.513-5.254-5.857s1.91-5.836,5.254-5.836,5.254,2.493,5.254,5.836S52.391,708.805,49.047,708.805Zm0-9.034c-1.2,0-1.828,1.081-1.828,3.136s.623,3.156,1.828,3.156,1.828-1.1,1.828-3.156S50.252,699.771,49.047,699.771Z" transform="translate(-3.99 -692.254)" fill="#fff"/><path d="M61.169,708.555v-7.268a1.4,1.4,0,0,0-1.579-1.495,3.625,3.625,0,0,0-1.286.229v8.534H54.877V697.923a12.672,12.672,0,0,1,4.672-.811c3.51,0,5.046,1.35,5.046,3.78v7.662Z" transform="translate(-2.699 -692.254)" fill="#fff"/><path d="M70.418,708.805c-3.53,0-5.275-1.308-5.275-3.7,0-2.969,3.032-3.654,6.417-3.841v-.436c0-.893-.623-1.309-1.786-1.309a9.274,9.274,0,0,0-3.177.686l-.83-2.284a12.809,12.809,0,0,1,4.422-.811c3.052,0,4.59,1.163,4.59,4.133v6.749A10.828,10.828,0,0,1,70.418,708.805Zm1.142-5.4c-1.849.084-3.24.291-3.24,1.62,0,.913.769,1.412,1.994,1.412a4.517,4.517,0,0,0,1.246-.166Z" transform="translate(-1.504 -692.254)" fill="#fff"/><path d="M75.8,709.062v-16.3h3.427v16.3Z" transform="translate(-0.263 -692.761)" fill="#fff"/><path d="M90.882,703.405l-6.978.913a2.483,2.483,0,0,0,2.721,1.829,7.512,7.512,0,0,0,3.156-.685l.955,2.533a11.21,11.21,0,0,1-4.381.811c-3.884,0-5.794-2.534-5.794-5.857,0-3.426,1.994-5.836,5.358-5.836,3.26,0,5,2.18,5,5.254A8.718,8.718,0,0,1,90.882,703.405Zm-5.046-3.883c-1.2,0-2.139.83-2.16,2.68l3.945-.5C87.621,700.29,86.936,699.522,85.836,699.522Z" transform="translate(0.291 -692.254)" fill="#fff"/><path d="M94.757,708.805a8.712,8.712,0,0,1-3.8-.811l1.081-2.574a6.013,6.013,0,0,0,2.616.706c.789,0,1.288-.374,1.288-.935,0-.643-.623-.913-1.434-1.2-1.329-.477-3.26-1.163-3.26-3.448,0-2.1,1.6-3.426,4.34-3.426a8.054,8.054,0,0,1,3.635.811l-1.018,2.3a4.286,4.286,0,0,0-2.159-.622c-.811,0-1.288.373-1.288.913,0,.748.872,1.038,1.516,1.267,1.371.5,3.24,1.141,3.24,3.425C99.513,707.413,97.935,708.805,94.757,708.805Z" transform="translate(1.502 -692.254)" fill="#fff"/></g><path d="M794.682,801.823,791.856,799a1.051,1.051,0,0,0-.735-.294,1.039,1.039,0,0,0-.748.314,1.055,1.055,0,0,0-.013,1.487l.02.023,2.059,2.071-2.108,2.1a1.073,1.073,0,0,0,.04,1.478,1.091,1.091,0,0,0,1.488.02l2.839-2.849a1.066,1.066,0,0,0,.013-1.485Z" transform="translate(-1953.864 -1162.328)" fill="none"/><path d="M787.9,799.992a.9.9,0,0,0-.122-.1A.9.9,0,0,1,787.9,799.992Z" transform="translate(-1953.864 -1162.328)" fill="none"/><path d="M787.644,804.958l1.866-1.87a.7.7,0,0,0,.008-.976l-.02-.026-1.841-1.84a.706.706,0,0,0-.986,0,.718.718,0,0,0-.117.161.7.7,0,0,0-.057.136v.005a.616.616,0,0,0-.026.133v.014a.7.7,0,0,0,0,.129l0,.016a.744.744,0,0,0,.034.139.714.714,0,0,0,.153.245l1.365,1.375-1.382,1.377a.708.708,0,0,0,.025.971A.714.714,0,0,0,787.644,804.958Z" transform="translate(-1953.864 -1162.328)" fill="none"/><path d="M816.052,830.9a27.88,27.88,0,0,0,27.8-26.3l-1.231-1.231c-.012-.012-.019-.021-.03-.034a1.049,1.049,0,0,1-.016-1.44l.025-.032L844.456,800l-.664.663A27.851,27.851,0,0,0,809.5,775.987a10.108,10.108,0,0,0-2.328.29c-6.618,1.495-12.1,7.9-12.1,7.9l.24.313a27.745,27.745,0,0,0-6.987,15.939l-.434-.435,1.887,1.891a1.049,1.049,0,0,1-.016,1.442.282.282,0,0,1-.026.03l-1.475,1.476A27.878,27.878,0,0,0,816.052,830.9Zm21.192-29.382.039-.048,2.834-2.835a1.594,1.594,0,0,1,1.123-.461,1.564,1.564,0,0,1,1.128.475,1.584,1.584,0,0,1,.016,2.23l-.017.022-1.693,1.7,1.728,1.717a1.6,1.6,0,0,1-.036,2.237,1.6,1.6,0,0,1-2.233.027l-.033-.035-2.786-2.784a.641.641,0,0,1-.048-.057A1.6,1.6,0,0,1,837.244,801.513Zm-42.15,2.189a.375.375,0,0,1-.04.049l-2.826,2.827a1.6,1.6,0,0,1-2.234-.027,1.6,1.6,0,0,1-.036-2.237l.052-.043,1.676-1.674-1.715-1.727a1.584,1.584,0,0,1,.023-2.228,1.565,1.565,0,0,1,1.127-.473,1.591,1.591,0,0,1,1.122.461l.021.024,2.852,2.859A1.6,1.6,0,0,1,795.094,803.7Z" transform="translate(-1953.864 -1162.328)" fill="none"/><path d="M786.479,801.536c-.026.5-.044,1.007-.044,1.515,0,.211,0,.421.008.631l1.089-1.086Z" transform="translate(-1953.864 -1162.328)" fill="none"/><path d="M840.516,806.209a1.047,1.047,0,0,0,.718.278,1.06,1.06,0,0,0,.755-.312,1.073,1.073,0,0,0,.04-1.479l-.04-.033-2.068-2.065L842,800.5a1.054,1.054,0,0,0-.011-1.485A1.079,1.079,0,0,0,840.5,799l-.019.02-2.8,2.8-.029.037a1.065,1.065,0,0,0,.013,1.485Z" transform="translate(-1953.864 -1162.328)" fill="none"/><path d="M845.663,803.426c0-.125.005-.25.005-.375,0-.426-.012-.848-.031-1.269l-.808.814Z" transform="translate(-1953.864 -1162.328)" fill="none"/><path d="M787.708,799.85c-.02-.012-.041-.024-.062-.034C787.667,799.826,787.688,799.838,787.708,799.85Z" transform="translate(-1953.864 -1162.328)" fill="none"/><path d="M816.052,774.207a28.887,28.887,0,0,1,28.662,25.609,1.076,1.076,0,0,1,.767-.077,29.615,29.615,0,0,0-58.871.114,1.088,1.088,0,0,1,.793-.124h0A28.886,28.886,0,0,1,816.052,774.207Z" transform="translate(-1953.864 -1162.328)" fill="none"/><path d="M784.751,801.229a.407.407,0,0,0-.289-.121.4.4,0,0,0-.285.12.4.4,0,0,0,0,.568l.792.8-.79.789a.409.409,0,0,0,0,.577.419.419,0,0,0,.57.008l1.072-1.074a.414.414,0,0,0,.015-.582Z" transform="translate(-1953.864 -1162.328)" fill="none"/><path d="M844.773,805.409l.025.013a28.843,28.843,0,0,1-57.486.064,1.053,1.053,0,0,1-.147.015,1.037,1.037,0,0,1-.647-.229,29.615,29.615,0,0,0,59.051.158,1.017,1.017,0,0,1-.8-.021Z" transform="translate(-1953.864 -1162.328)" fill="none"/><path d="M787.552,799.775l-.037-.013Z" transform="translate(-1953.864 -1162.328)" fill="none"/><path d="M845.124,800.053a.709.709,0,0,1,.4.074A.709.709,0,0,0,845.124,800.053Z" transform="translate(-1953.864 -1162.328)" fill="none"/><g transform="translate(-1953.864 -1162.328)"><path d="M812.756,790a2.13,2.13,0,0,0-.337,1.357c-.009.567-.018,1.126-.018,1.694a9.968,9.968,0,0,0,.1,1.977,1.094,1.094,0,0,0,.186.4l.006.008c.832-.006,1.662-.024,2.483-.063a2.4,2.4,0,0,0,.278-1.08c.009-.186.018-.372.018-.558.009-.373.035-.737.035-1.109.009-.435.009-1.446-.044-1.889a1.566,1.566,0,0,0-.151-.559,1.118,1.118,0,0,0-.257-.34c-.426,0-.853,0-1.278-.019-.175-.007-.35-.011-.525-.016-.112.008-.223.019-.334.031A1.372,1.372,0,0,0,812.756,790Zm.753.293a.721.721,0,0,1,.462-.151.669.669,0,0,1,.6.31,1.941,1.941,0,0,1,.124.869c.009.435.009.869.009,1.3,0,.284,0,.558-.009.833a4.525,4.525,0,0,1-.142,1.473.711.711,0,0,1-1.286-.1,3.386,3.386,0,0,1-.062-.913c-.009-.6-.009-1.206-.009-1.81v-.434C813.2,790.945,813.208,790.528,813.509,790.289Z" fill="#fff"/><path d="M823.579,819.853l.943-5.064-.1,5.064H825.5v-5.841h-1.729l-.695,4.088-.687-4.088h-1.754v5.841h1.059l-.082-5.064.968,5.064Z" fill="#fff"/><rect width="1.067" height="5.841" transform="translate(830.29 814.011)" fill="#fff"/><path d="M828.776,816.709a.693.693,0,0,0,.645-.571,2.481,2.481,0,0,0,.033-.414V815.2a1.072,1.072,0,0,0-.347-.968,1.424,1.424,0,0,0-.969-.224h-1.811v5.842h1.844a2.012,2.012,0,0,0,.828-.116.97.97,0,0,0,.513-.869c0-.083.008-.174.008-.265v-.827a1.2,1.2,0,0,0-.165-.786A.859.859,0,0,0,828.776,816.709Zm-1.374-1.862h.43c.224,0,.456.009.53.282a.952.952,0,0,1,.025.256v.4c0,.356-.1.48-.307.521a1.922,1.922,0,0,1-.289.017H827.4Zm1.059,3.574c0,.4-.1.538-.331.571a1.428,1.428,0,0,1-.273.017H827.4v-1.845h.464c.214,0,.479.008.562.248a.806.806,0,0,1,.033.322Z" fill="#fff"/><path d="M798.226,797.555a2.4,2.4,0,0,1,.783.034,9.962,9.962,0,0,1,1.811-.005c-.288.535-1.086.093-1.443.058-.12-.012-.243-.033-.368-.053a4.62,4.62,0,0,1-.577-.019c-.069-.007-.137-.011-.206-.015a1.012,1.012,0,0,0-.316.1c-.387.209-.823.055-1.257.053a2.4,2.4,0,0,0-.294.022v.3h40.055v-1h-.778a1.422,1.422,0,0,0,.063.207c-.427.148-1.1-.21-1.284.142-.277.134-.895-.027-1.194-.039-.519-.022-1.013.031-1.571.051-1.119.044-2.254-.02-3.355-.07-1.193-.054-2.434.228-3.616.142a8.3,8.3,0,0,0-1.405-.2c-.586.05-.912.193-1.507-.176.02-.022.045-.041.067-.061H796.359v.572A10.68,10.68,0,0,1,798.226,797.555Z" fill="#fff"/><path d="M834,814.435l-.007-.026a.126.126,0,0,0-.019,0l-.01,0C833.975,814.417,833.986,814.426,834,814.435Z" fill="#fff"/><path d="M796.359,812.241c2.215-.01,4.388-.043,6.617-.043a43.126,43.126,0,0,1,8.018.336,5.667,5.667,0,0,1-1.61.131c-.7.023-1.385.049-2.079.047-1.456,0-2.887,0-4.309-.094-1.6-.1-3.25-.134-4.858-.187-.3-.009-1.026-.038-1.779-.046v.635h17.773a1.2,1.2,0,0,0-.116-.192l.253-.313a1.537,1.537,0,0,1,.2.505h21.946v-1H796.359Zm16.064-.013a.752.752,0,0,1,.486.084,1.04,1.04,0,0,1,0,.474c-.705.215-.507-.518-.772-.629Z" fill="#fff"/><path d="M809.655,801.166v-1.838h-5.694v11.906h2.156v-5.312h3.324v-1.771h-3.324v-2.985Z" fill="#fff"/><path d="M832.988,814.011l-1.133,5.842h1.075l.157-.952h.993l.141.952h1.092l-1.092-5.842Zm.231,3.988.389-2.506.356,2.506Zm.995-1.038c-.124-.634-.03-1.469-.13-2.14a.37.37,0,0,1-.445.172,2.371,2.371,0,0,1,.06-.63.447.447,0,0,1,.25.04l.023,0L834,814.4c.006.017.012.034.017.051a.307.307,0,0,1,.1.281c.43,1.434.156,3.106.661,4.5C834.185,819.2,834.3,817.433,834.214,816.961Z" fill="#fff"/><path d="M809.827,836.336a31.418,31.418,0,0,0,4.18.552c-.5-.066-1-.144-1.5-.24C811.608,836.477,810.716,836.418,809.827,836.336Z" fill="#fff"/><path d="M796.558,810.054a1.927,1.927,0,0,0,.576.742,3.65,3.65,0,0,0,2.419.691,3.51,3.51,0,0,0,2.518-.793,2.626,2.626,0,0,0,.674-2.007V802.06a3.367,3.367,0,0,0-.263-1.585,3.018,3.018,0,0,0-2.913-1.4,3.71,3.71,0,0,0-2.534.776,2.912,2.912,0,0,0-.724,2.158v6.678A3.3,3.3,0,0,0,796.558,810.054Zm2.32-9.107a1.166,1.166,0,0,1,.691-.22.907.907,0,0,1,.889.524,2.137,2.137,0,0,1,.132.961v6.155c0,.438.016.91-.379,1.2a1.229,1.229,0,0,1-.675.2,1.089,1.089,0,0,1-.872-.355,1.921,1.921,0,0,1-.2-1.095V802.3C798.467,801.807,798.4,801.284,798.878,800.947Zm-1.113,2.174a1.036,1.036,0,0,1,.273.012,6.7,6.7,0,0,1-.077,3.467c-.766-.891-.015-2.608-.551-3.623Z" fill="#fff"/><path d="M801.874,817.064h1.613V816.4h-1.613v-1.737h1.845v-.654h-2.573v5.841h2.631V819.2h-1.9Z" fill="#fff"/><path d="M818.258,813.887a1.9,1.9,0,0,0-1.274.381,1.4,1.4,0,0,0-.364,1.059V818.6a1.582,1.582,0,0,0,.124.67.936.936,0,0,0,.29.364,1.862,1.862,0,0,0,1.216.339,1.794,1.794,0,0,0,1.266-.389,1.266,1.266,0,0,0,.339-.984v-3.251a1.632,1.632,0,0,0-.132-.778A1.529,1.529,0,0,0,818.258,813.887Zm.513,1.539v3.02c0,.215.009.447-.19.587a.626.626,0,0,1-.339.1.556.556,0,0,1-.439-.174.929.929,0,0,1-.1-.538v-2.954c0-.239-.033-.5.207-.661a.588.588,0,0,1,.347-.108.456.456,0,0,1,.447.257A1.022,1.022,0,0,1,818.771,815.426Z" fill="#fff"/><path d="M792.228,809.052l2.826-2.828a.318.318,0,0,0,.04-.049,1.6,1.6,0,0,0,.022-2.189l-.59-.591c-.586-.256-1.152-1.063-1.6-1.5a3.5,3.5,0,0,1-.745-.843,1.585,1.585,0,0,0-1.058-.409,1.56,1.56,0,0,0-1.127.473,1.584,1.584,0,0,0-.023,2.228l1.715,1.726-1.676,1.674-.052.043a1.6,1.6,0,0,0,.036,2.237,1.6,1.6,0,0,0,2.234.028Zm-1.857-.4a1.074,1.074,0,0,1-.04-1.479l2.108-2.1L790.38,803l-.02-.024a1.055,1.055,0,0,1,.013-1.487,1.039,1.039,0,0,1,.748-.314,1.051,1.051,0,0,1,.735.294l2.826,2.827.029.037a1.066,1.066,0,0,1-.013,1.485l-2.839,2.848A1.091,1.091,0,0,1,790.371,808.648Z" fill="#fff"/><path d="M792.565,820.46c-.2-.314-.393-.631-.581-.954a2.592,2.592,0,0,1-.935.383q.344.6.714,1.174A2.871,2.871,0,0,0,792.565,820.46Z" fill="#fff"/><path d="M799.681,814.144a2.523,2.523,0,0,0-1.051-.133h-1.1v5.842h1.092a2.277,2.277,0,0,0,1.1-.158,1.28,1.28,0,0,0,.613-1.116q.024-.324.024-.646c.009-.43.017-.869.017-1.3,0-.687-.008-1.3-.041-1.547A1.136,1.136,0,0,0,799.681,814.144Zm-.025,3.028a12.939,12.939,0,0,1-.049,1.505.547.547,0,0,1-.29.44,1.3,1.3,0,0,1-.579.09h-.48V816.24a3.457,3.457,0,0,1-.049-.417v-.142a1.49,1.49,0,0,1,.049.156v-1.156h.372a1.21,1.21,0,0,1,.811.175c.174.173.2.413.207.876C799.665,816.213,799.656,816.693,799.656,817.172Z" fill="#fff"/><path d="M808.494,814.152a1.951,1.951,0,0,0-1.092-.265,1.78,1.78,0,0,0-1.208.34,1.113,1.113,0,0,0-.414.9c-.008.1-.016.206-.016.306v3.177a1.578,1.578,0,0,0,.082.612,1.221,1.221,0,0,0,.985.7,2.911,2.911,0,0,0,.554.057c.124,0,1.208.017,1.489-.794a2.151,2.151,0,0,0,.083-.7v-.827H807.9v.761c0,.447-.041.72-.521.72-.447,0-.53-.282-.53-.662v-3.127c0-.381.083-.637.5-.637.48,0,.554.24.554.686v.737h1.059v-.894a1.294,1.294,0,0,0-.1-.662A1.031,1.031,0,0,0,808.494,814.152Z" fill="#fff"/><path d="M811.191,813.887a1.9,1.9,0,0,0-1.274.381,1.4,1.4,0,0,0-.363,1.059V818.6a1.581,1.581,0,0,0,.123.67.947.947,0,0,0,.29.364,1.864,1.864,0,0,0,1.216.339,1.793,1.793,0,0,0,1.266-.389,1.263,1.263,0,0,0,.339-.984v-3.251a1.619,1.619,0,0,0-.132-.778A1.529,1.529,0,0,0,811.191,813.887Zm-1.311,5.318a5.22,5.22,0,0,1-.1-1.783c-.017-.4-.042-.8-.03-1.2.008-.259-.041-.71.125-.926l-.031.094a7.506,7.506,0,0,1,.062,1.89A6.408,6.408,0,0,1,809.88,819.205Zm1.825-3.779v3.02c0,.215.008.447-.191.587a.624.624,0,0,1-.339.1.557.557,0,0,1-.439-.174.929.929,0,0,1-.1-.538v-2.954c0-.239-.033-.5.207-.661a.592.592,0,0,1,.347-.108.454.454,0,0,1,.447.257A1.027,1.027,0,0,1,811.705,815.426Z" fill="#fff"/><path d="M848.329,805.715l-.522-.592.652-.658a.872.872,0,0,0-.13-.906.651.651,0,0,0-.88-.119l-1.07,1.208,1.043-1.047a31.429,31.429,0,0,0-62.729-.175c.021.009.041.021.062.032a.623.623,0,0,0-.723.1.612.612,0,0,0,0,.861l.646.65-.051-.051c0,.034,0,.068,0,.1l-.586.585-.022.019a.609.609,0,0,0,.628,1,31.488,31.488,0,0,0,19.912,28.049,6.984,6.984,0,0,1,2.6.347c1.2.352,2.438.684,3.627,1.012,2.648.731,5.579.209,8.327.071.406-.02.981-.152,1.065.285a.522.522,0,0,1,0,.192,31.483,31.483,0,0,0,27.28-30.106l-1.082-1.085,1.094,1.1a.611.611,0,0,0,.854-.875Zm-4.455-13.98h.142c.138.269.67,1.887-.215,1.626a4.909,4.909,0,0,1-.428-.843C843.384,792.107,843.594,791.972,843.874,791.735Zm-27.822-15.827a29.666,29.666,0,0,1,28.7,22.294c-.008-.044-.013-.091-.023-.134a19.239,19.239,0,0,0-.292-2.324.529.529,0,0,0-.062-.024l-.142-.356a1.124,1.124,0,0,1,.2.38c1.048.424,1.617,4.873.922,5.508.046.319.012.355.048.677a1.084,1.084,0,0,0-.768.076,28.563,28.563,0,0,0-28.584-25.324A28.885,28.885,0,0,0,787.4,802.2h0a1.093,1.093,0,0,0-.793.124A29.657,29.657,0,0,1,816.052,775.908Zm20.2,9.767a1.06,1.06,0,0,1-.342,0c-.023-.469-.4-.608-.658-.855a.277.277,0,0,0-.139.018l-.136.136a.244.244,0,0,1,.136-.136l.077-.078c.019.021.041.04.062.06A1.775,1.775,0,0,1,836.255,785.675Zm-15.5-7.957c-.57.262-1.341-.2-1.935-.356-.414-.11-1.832-.064-1.562-.64h.071A8.584,8.584,0,0,1,820.759,777.718Zm-34.942,27.651-1.072,1.074a.419.419,0,0,1-.57-.007.411.411,0,0,1,0-.578l.79-.789-.792-.8a.4.4,0,0,1,0-.569.4.4,0,0,1,.285-.119.405.405,0,0,1,.289.12l1.081,1.085A.414.414,0,0,1,785.817,805.369Zm.618.155c0-.508.018-1.012.044-1.514l1.053,1.059-1.089,1.086C786.438,805.946,786.435,805.736,786.435,805.524Zm.032,1.341a.7.7,0,0,1,.177-.418l1.382-1.376-1.365-1.376a.7.7,0,0,1-.153-.244.763.763,0,0,1-.034-.139l0-.017a.7.7,0,0,1,0-.129v-.014a.629.629,0,0,1,.026-.133v-.005a.691.691,0,0,1,.057-.135.674.674,0,0,1,.117-.161.706.706,0,0,1,.986,0l1.841,1.84.02.026a.7.7,0,0,1-.008.976l-1.866,1.87a.714.714,0,0,1-.975-.012.7.7,0,0,1-.2-.554Zm52.658,19.347c-.56.515-4.677,4.934-5.139,3.853a.078.078,0,0,0-.063-.005l-.065.065c-.019-.007.017-.051.065-.065l.148-.148c1.433-1.229,3.071-2.077,4.2-3.7a31.1,31.1,0,0,1,2.4-2.741,27.724,27.724,0,0,0,1.813-2.8C843.668,821.35,839.77,825.617,839.125,826.212Zm-23.073,8.93a29.656,29.656,0,0,1-29.534-27.4,1.032,1.032,0,0,0,.647.229,1.051,1.051,0,0,0,.147-.014,28.631,28.631,0,0,0,2.7,9.959,6.009,6.009,0,0,0,.844-.554,27.655,27.655,0,0,1-2.589-10.06l1.475-1.476c.009-.01.016-.018.026-.031a1.047,1.047,0,0,0,.016-1.441l-1.887-1.892.434.435a27.745,27.745,0,0,1,6.987-15.939l-.24-.312s5.479-6.4,12.1-7.9a10.051,10.051,0,0,1,2.328-.29,27.847,27.847,0,0,1,34.289,24.674l.664-.663-1.855,1.855-.025.031a1.049,1.049,0,0,0,.016,1.44c.011.014.018.022.03.035l1.231,1.23a27.893,27.893,0,0,1-16.038,23.7.667.667,0,0,1-.239.591c-.547.56-1.785.7-2.488,1.156-.281.181-.424.572-.8.367-.144-.079-.255-.378-.375-.635A27.833,27.833,0,0,1,793,821.121c-.311.176-.452.481-.831.559A28.835,28.835,0,0,0,844.8,807.9l-.025-.013a1.017,1.017,0,0,0,.8.021A29.654,29.654,0,0,1,816.052,835.142Zm29.763-27.6a.623.623,0,0,1-1,.013l-.238-.011-1.611-1.838c-.007-.007-.235-.01-.244-.022-.334-.335-.11-.874.213-1.22l.01-.017,1.631-1.852.006-.007a.873.873,0,0,1,1.24,1.228l-.011.012-1.234,1.241,1.234,1.232.019.014A.879.879,0,0,1,845.815,807.543Zm-.924-2.411-.062-.063.061-.061h0l.747-.753c.019.422.031.844.031,1.269,0,.126,0,.25-.005.375l-.772-.767Zm3.367,1.376a.513.513,0,0,1-.713.009l-.006-.009-1.068-1.067c0-.005-.008-.007-.011-.014a.509.509,0,0,1-.007-.709l.007-.01,1.077-1.078.005,0a.507.507,0,0,1,.719.715l-.005.006-.717.722.719.717.01.008A.515.515,0,0,1,848.258,806.508Z" fill="#fff"/><path d="M814.491,815.283c.012.225.09.653.151,1.1v-2.375h-.112C814.514,814.454,814.471,814.9,814.491,815.283Z" fill="#fff"/><path d="M814.642,817.822a.328.328,0,0,1-.137.169,12.3,12.3,0,0,1-.244-2.182c-.023-.5.08-1.176.067-1.8h-.762v5.842h2.657v-.886h-1.581Z" fill="#fff"/><rect width="2.122" height="11.906" transform="translate(810.149 799.328)" fill="#fff"/><path d="M803.725,790.28v-.012l-.292.012Z" fill="#fff"/><path d="M803.788,795.139h-2.04v-2.288h1.729v-.709h-1.729v-1.83h-.78v5.529h2.82Z" fill="#fff"/><path d="M806.936,795.139H805.1V790.2l-.8.041v5.6h2.634Z" fill="#fff"/><path d="M809.251,789.957c-.011.013-.024.025-.034.039a2.827,2.827,0,0,0-.328,1.588c-.009.354-.009.7-.009,1.055v1a3.039,3.039,0,0,0,.266,1.693c.006.01.013.017.019.026.82-.014,1.717.075,2.405.075h.022a1.444,1.444,0,0,0,.223-.588,3.8,3.8,0,0,0,.035-.542c.009-.221.009-.442.009-.664h-.727v.461c0,.32.009.816-.284,1.037a.642.642,0,0,1-.417.133.711.711,0,0,1-.629-.31,1.834,1.834,0,0,1-.124-.816c-.018-.47-.027-.931-.027-1.4a12.842,12.842,0,0,1,.089-2.057.664.664,0,0,1,.709-.55.63.63,0,0,1,.4.124.662.662,0,0,1,.24.6c.009.231.009.461.009.682h.718c.009-.132.009-.274.009-.407a1.917,1.917,0,0,0-.229-1.137C810.843,790.037,810.046,789.96,809.251,789.957Z" fill="#fff"/><path d="M818.636,795.84h.816l-.178-.452c-.273-.012-.547-.021-.821-.023Z" fill="#fff"/><path d="M811.378,789.777a1.448,1.448,0,0,0-.929-.295,1.709,1.709,0,0,0-1.055.333C810.055,789.795,810.716,789.781,811.378,789.777Z" fill="#fff"/><path d="M822.335,795.84h.816l-.244-.62c-.159-.006-.319-.009-.478-.014-.11.008-.219.019-.327.031Z" fill="#fff"/><path d="M819.889,789.829c-.011.007-.025.013-.037.021v5.343c.257,0,.515-.007.772-.008v-2.094h.647l.816,2.108.342.007q.231-.015.465-.018l-.86-2.186a.921.921,0,0,0,.523-.319,1.364,1.364,0,0,0,.257-.656,4.5,4.5,0,0,0,.062-.781,1.411,1.411,0,0,0-1.658-1.667h-1.366v.247Zm.735.46h.381c.381,0,.86-.036,1.02.417a2.088,2.088,0,0,1,.071.664c0,.329.009.879-.381,1.038a1.916,1.916,0,0,1-.683.071h-.408Z" fill="#fff"/><path d="M818.567,789.785a1.984,1.984,0,0,0-1.048-.206h-1.366v.239C816.958,789.8,817.764,789.779,818.567,789.785Z" fill="#fff"/><path d="M820.624,795.415c-.253.007-.511,0-.772-.005v.43h.772Z" fill="#fff"/><path d="M813.25,789.8a14.31,14.31,0,0,1,1.791.023,1.56,1.56,0,0,0-1.017-.339,1.653,1.653,0,0,0-1.062.311C813.058,789.795,813.154,789.795,813.25,789.8Z" fill="#fff"/><path d="M813.9,795.929a1.545,1.545,0,0,0,1.082-.328c.012-.011.021-.023.032-.033-.057,0-.114.007-.171.01-.643.025-1.271.065-1.906.1A1.619,1.619,0,0,0,813.9,795.929Z" fill="#fff"/><path d="M811.079,795.823a1.323,1.323,0,0,0,.215-.1l-.155,0c-.5,0-1.054,0-1.608-.009a1.511,1.511,0,0,0,.856.218A2.106,2.106,0,0,0,811.079,795.823Z" fill="#fff"/><path d="M816.925,795.431c-.257.019-.515.038-.772.059v.35h.772Z" fill="#fff"/><path d="M816.153,789.883v5.438q.385-.02.772-.036v-2.194h.647l.828,2.138c.267-.009.535-.016.8-.023l-.868-2.2a.923.923,0,0,0,.523-.319,1.364,1.364,0,0,0,.257-.656,4.5,4.5,0,0,0,.062-.781,2.044,2.044,0,0,0-.29-1.161c-.9.041-2.064-.175-2.692-.2Zm.772.406h.381c.381,0,.861-.036,1.02.417a2.088,2.088,0,0,1,.071.664c0,.329.009.879-.381,1.038a1.915,1.915,0,0,1-.683.071h-.408Z" fill="#fff"/><path d="M831.095,799.328v11.3c.36-.341,1.819-.063,2.1-.034.911.094,1.844.033,2.769.078a1.362,1.362,0,0,0,0,.192,48.149,48.149,0,0,1-4.87.214v.155h5.282v-1.8h-3.143v-10.1Z" fill="#fff"/><path d="M805.1,789.995v-.416h-.8v.435Q804.7,790.006,805.1,789.995Z" fill="#fff"/><path d="M820.794,799.328v11.906h2.123V799.328Zm1.929,1.624c-.293.013-.061-.561-.108-.712l.107.071C822.837,800.427,823.062,800.937,822.723,800.952Z" fill="#fff"/><path d="M802.39,790.028q.668,0,1.335-.007v-.442h-2.757v.393C801.476,789.994,801.972,790.028,802.39,790.028Z" fill="#fff"/><path d="M828,809.295l.279,1.939h2.173l-2.173-11.906h-2.452l-2.254,11.906h2.139l.313-1.939Zm-.938-6.948.708,5.109H826.29Z" fill="#fff"/><path d="M837.29,806.2c0-.016-.005-.033-.006-.049a6.779,6.779,0,0,1,2.124,1.858,2.906,2.906,0,0,1,.529.84l.163.164.033.035a1.6,1.6,0,0,0,2.233-.027,1.6,1.6,0,0,0,.036-2.238l-1.728-1.717,1.693-1.7.017-.023a1.584,1.584,0,0,0-.016-2.23,1.563,1.563,0,0,0-1.128-.474,1.593,1.593,0,0,0-1.123.46l-2.834,2.835-.039.048a1.6,1.6,0,0,0,.022,2.189A.184.184,0,0,0,837.29,806.2Zm.36-1.87.029-.037,2.8-2.8.019-.021a1.079,1.079,0,0,1,1.486.02,1.054,1.054,0,0,1,.011,1.485l-2.079,2.094,2.068,2.066.04.032a1.073,1.073,0,0,1-.04,1.479,1.06,1.06,0,0,1-.755.312,1.047,1.047,0,0,1-.718-.278l-2.853-2.863A1.065,1.065,0,0,1,837.65,804.334Z" fill="#fff"/><path d="M824.434,795.241c.645-.006,1.291-.023,1.937-.037v-.065h-2.039v-2.288h1.729v-.709h-1.729V790.28h1.977v-.7h-2.758V795.2C823.846,795.207,824.142,795.222,824.434,795.241Z" fill="#fff"/><path d="M823.551,795.84h2.82v-.451c-.385-.043-.738-.086-1-.1-.306-.012-.621-.032-.94-.052-.294,0-.589,0-.883,0Z" fill="#fff"/><path d="M813.489,802.228V808.7a3.263,3.263,0,0,0,.165,1.248,2.427,2.427,0,0,0,1.958,1.417,5.6,5.6,0,0,0,1.1.118c.247,0,2.4.033,2.962-1.619a4.527,4.527,0,0,0,.164-1.417v-1.686h-2.106v1.552c0,.91-.082,1.466-1.036,1.466-.889,0-1.053-.573-1.053-1.349V802.06c0-.776.164-1.3.987-1.3.955,0,1.1.489,1.1,1.4v1.5h2.106v-1.821a2.692,2.692,0,0,0-.2-1.35,2.065,2.065,0,0,0-.724-.876,3.794,3.794,0,0,0-2.172-.54,3.482,3.482,0,0,0-2.4.691,2.167,2.167,0,0,0-.5.574c0,.009.007.016.01.027l.031.061c.156-.441.309-.19.472-.261-.32.377.022,1.163-.15,1.644a5.492,5.492,0,0,0-.089-1.309,6.593,6.593,0,0,0-.1,2.028c-.034.694.034,1.4-.007,2.1-.54,1.483-.237-1.688-.22-2.025.022-.442.092-.888.1-1.333a4.3,4.3,0,0,0-.031-.9l-.012-.024a2.648,2.648,0,0,0-.324,1.262C813.506,801.807,813.489,802.026,813.489,802.228Z" fill="#fff"/><path d="M826.989,795.2c.331,0,.662-.005.992,0a.65.65,0,0,1-.279-.367,3.386,3.386,0,0,1-.062-.913c-.009-.6-.009-1.206-.009-1.81v-.434c0-.727.009-1.144.311-1.383a.717.717,0,0,1,.461-.151.669.669,0,0,1,.6.31,1.941,1.941,0,0,1,.124.869c.009.435.009.869.009,1.3,0,.284,0,.558-.009.833a4.525,4.525,0,0,1-.142,1.473.568.568,0,0,1-.292.291c.124.006.249.01.372.018a3.225,3.225,0,0,1-1.912.232,1.436,1.436,0,0,0,1.176.461,1.547,1.547,0,0,0,1.082-.328,1.9,1.9,0,0,0,.47-1.313c.009-.186.018-.372.018-.558.008-.373.035-.737.035-1.109.009-.435.009-1.446-.044-1.889a1.546,1.546,0,0,0-.151-.559,1.369,1.369,0,0,0-1.286-.691,1.5,1.5,0,0,0-1.268.514,2.13,2.13,0,0,0-.337,1.357c-.009.567-.018,1.126-.018,1.694a9.968,9.968,0,0,0,.1,1.977A1.21,1.21,0,0,0,826.989,795.2Z" fill="#fff"/></g><g transform="translate(-1953.864 -1162.328)"><path d="M944.028,816.5l-.435,3.065h2.032v.968h-2.177l-.468,3.4h-1.1l.484-3.4h-2.984l-.483,3.4h-1.081l.484-3.4h-2.048v-.968h2.193l.435-3.065h-2.032v-.967h2.178l.467-3.274h1.081l-.468,3.274h2.984l.467-3.274h1.081l-.451,3.274h2.032v.967Zm-4.064,0-.435,3.065h2.983l.436-3.065Z" fill="#fff"/><path d="M952.8,824.116c-2.983,0-4.468-2.693-4.468-6.016s1.485-6.015,4.468-6.015,4.468,2.693,4.468,6.015S955.784,824.116,952.8,824.116Zm0-10.789c-2.032,0-3.08,2.08-3.08,4.773s1.048,4.774,3.08,4.774,3.081-2.08,3.081-4.774S954.832,813.327,952.8,813.327Z" fill="#fff"/><path d="M962.266,824.036a5.341,5.341,0,0,1-1.549-.227v3.6h-1.355V815.681a6.657,6.657,0,0,1,2.807-.613c2.645,0,4.129,1.742,4.129,4.436C966.3,822.164,964.862,824.036,962.266,824.036Zm-.081-7.887a3.654,3.654,0,0,0-1.468.291v6.3a4.633,4.633,0,0,0,1.452.226c1.822,0,2.774-1.467,2.774-3.467C964.943,817.487,963.975,816.149,962.185,816.149Z" fill="#fff"/><path d="M975.231,819.375l-5.935.854a2.722,2.722,0,0,0,2.919,2.791,5.247,5.247,0,0,0,2.371-.533l.419,1.016a6.248,6.248,0,0,1-2.854.613c-2.6,0-4.161-1.677-4.161-4.532,0-2.677,1.435-4.516,3.79-4.516,2.145,0,3.468,1.4,3.468,3.726C975.248,818.972,975.248,819.165,975.231,819.375Zm-3.467-3.275c-1.532,0-2.516,1.226-2.549,3.194l4.742-.678C973.941,816.907,973.07,816.1,971.764,816.1Z" fill="#fff"/><path d="M981.052,816.262a3.8,3.8,0,0,0-.774-.065,4.505,4.505,0,0,0-1.645.274v7.468h-1.355v-8.258a8.264,8.264,0,0,1,3.177-.613,6.408,6.408,0,0,1,.855.065Z" fill="#fff"/><path d="M985.954,824.116c-2.387,0-3.58-1.016-3.58-2.661,0-2.483,2.677-2.855,5.306-3v-.662c0-1.291-.855-1.694-2.064-1.694a6.182,6.182,0,0,0-2.371.533l-.355-.952a7.266,7.266,0,0,1,2.838-.613c1.952,0,3.226.775,3.226,2.839v5.6A7.121,7.121,0,0,1,985.954,824.116Zm1.726-4.725c-1.935.113-4.032.225-4.032,2.032,0,1.016.758,1.677,2.274,1.677a5.267,5.267,0,0,0,1.758-.274Z" fill="#fff"/><path d="M995.114,824.116c-2.645,0-4.129-1.726-4.129-4.419,0-2.661,1.419-4.532,4.016-4.532a5.455,5.455,0,0,1,1.564.226v-4.112H997.9V823.5A6.224,6.224,0,0,1,995.114,824.116Zm1.451-7.676a4.807,4.807,0,0,0-1.467-.21c-1.823,0-2.774,1.467-2.774,3.467,0,2.016.984,3.323,2.774,3.323a4.01,4.01,0,0,0,1.467-.275Z" fill="#fff"/><path d="M1003.628,824.116c-2.4,0-3.693-1.952-3.693-4.532s1.29-4.516,3.693-4.516,3.693,1.935,3.693,4.516S1006.031,824.116,1003.628,824.116Zm0-7.951c-1.58,0-2.355,1.4-2.355,3.4s.775,3.435,2.355,3.435,2.355-1.435,2.355-3.435S1005.209,816.165,1003.628,816.165Z" fill="#fff"/><path d="M1013.126,816.262a3.807,3.807,0,0,0-.774-.065,4.505,4.505,0,0,0-1.645.274v7.468h-1.355v-8.258a8.264,8.264,0,0,1,3.177-.613,6.42,6.42,0,0,1,.855.065Z" fill="#fff"/><path d="M1017.883,819.165a8.108,8.108,0,0,1-1.355-.1v4.871h-1.387V812.7a7.2,7.2,0,0,1,3.064-.613c2.678,0,4.161,1.386,4.161,3.564C1022.366,817.7,1020.786,819.165,1017.883,819.165Zm.338-5.967a4.778,4.778,0,0,0-1.693.273v4.485a7.617,7.617,0,0,0,1.307.1c2.048,0,3.16-.952,3.16-2.419C1020.995,814.036,1020.011,813.2,1018.221,813.2Z" fill="#fff"/><path d="M1027.3,824.116c-2.4,0-3.693-1.952-3.693-4.532s1.291-4.516,3.693-4.516,3.694,1.935,3.694,4.516S1029.7,824.116,1027.3,824.116Zm0-7.951c-1.58,0-2.354,1.4-2.354,3.4S1025.72,823,1027.3,823s2.355-1.435,2.355-3.435S1028.881,816.165,1027.3,816.165Z" fill="#fff"/><path d="M1035.1,824.116a5.634,5.634,0,0,1-2.58-.613l.483-1.032a4.6,4.6,0,0,0,2.081.549c1.113,0,1.855-.549,1.855-1.4,0-.919-.742-1.274-1.758-1.644-1.226-.452-2.435-1-2.435-2.565,0-1.355,1.047-2.339,2.886-2.339a4.894,4.894,0,0,1,2.419.613l-.467.952a3.462,3.462,0,0,0-1.823-.516c-1.048,0-1.645.564-1.645,1.29,0,.952.79,1.274,1.71,1.613,1.29.484,2.516.968,2.516,2.6C1038.347,823.117,1037.153,824.116,1035.1,824.116Z" fill="#fff"/><path d="M1043.151,824.036a2.094,2.094,0,0,1-2.29-2.356v-5.418H1039.6v-1.016h1.258v-2.1l1.307-.435v2.532h1.87v1.016h-1.87v5.354a1.155,1.155,0,0,0,1.306,1.226,1.8,1.8,0,0,0,.564-.081v1.129A2.386,2.386,0,0,1,1043.151,824.036Z" fill="#fff"/><path d="M1049.085,824.116c-2.387,0-3.58-1.016-3.58-2.661,0-2.483,2.677-2.855,5.306-3v-.662c0-1.291-.855-1.694-2.065-1.694a6.186,6.186,0,0,0-2.37.533l-.355-.952a7.266,7.266,0,0,1,2.838-.613c1.952,0,3.226.775,3.226,2.839v5.6A7.118,7.118,0,0,1,1049.085,824.116Zm1.726-4.725c-1.935.113-4.032.225-4.032,2.032,0,1.016.758,1.677,2.274,1.677a5.267,5.267,0,0,0,1.758-.274Z" fill="#fff"/><path d="M1054.519,823.939v-12.66h1.339v12.66Z" fill="#fff"/><path d="M1062.486,824.116c-2.984,0-4.468-2.693-4.468-6.016s1.484-6.015,4.468-6.015,4.468,2.693,4.468,6.015S1065.47,824.116,1062.486,824.116Zm0-10.789c-2.032,0-3.08,2.08-3.08,4.773s1.048,4.774,3.08,4.774,3.08-2.08,3.08-4.774S1064.518,813.327,1062.486,813.327Z" fill="#fff"/><path d="M1072.887,812.358c-1.081,0-1.9.5-1.9,1.71v1.178h1.919v1.016h-1.919v7.677h-1.307v-7.677h-1.225v-1.016h1.225v-1.178a2.685,2.685,0,0,1,3-2.8,2.763,2.763,0,0,1,.387.016v1.079Zm2.548,1.243a.807.807,0,1,1,0-1.613.808.808,0,1,1,0,1.613Zm-.661,10.338v-8.693h1.338v8.693Z" fill="#fff"/><path d="M1081.949,824.116c-1.855,0-3.725-1.339-3.725-4.532s1.87-4.516,3.725-4.516a3.78,3.78,0,0,1,2.161.6l-.467.984a2.7,2.7,0,0,0-1.549-.452c-1.242,0-2.484.936-2.484,3.371s1.258,3.4,2.484,3.4a2.719,2.719,0,0,0,1.549-.467l.467,1.016A3.788,3.788,0,0,1,1081.949,824.116Z" fill="#fff"/><path d="M1086.706,813.488a.844.844,0,0,1-.855-.822.855.855,0,0,1,1.709,0A.843.843,0,0,1,1086.706,813.488Zm-.662,10.451v-8.693h1.339v8.693Z" fill="#fff"/><path d="M1092.963,824.116c-2.388,0-3.581-1.016-3.581-2.661,0-2.483,2.678-2.855,5.307-3v-.662c0-1.291-.855-1.694-2.065-1.694a6.186,6.186,0,0,0-2.371.533l-.355-.952a7.272,7.272,0,0,1,2.839-.613c1.952,0,3.226.775,3.226,2.839v5.6A7.125,7.125,0,0,1,1092.963,824.116Zm1.726-4.725c-1.936.113-4.033.225-4.033,2.032,0,1.016.758,1.677,2.274,1.677a5.273,5.273,0,0,0,1.759-.274Z" fill="#fff"/><path d="M1098.4,823.939v-12.66h1.338v12.66Z" fill="#fff"/></g><line y2="52.708" transform="translate(-1093.954 -383.521)" fill="none" stroke="#fff" stroke-miterlimit="10" stroke-width="0.5"/></g></svg>