<svg xmlns="http://www.w3.org/2000/svg" width="109.106" height="97.456" viewBox="0 0 109.106 97.456"><g transform="translate(-131.894 -277)"><path d="M50.012,1.5H19.094A11.579,11.579,0,0,0,7.5,13.094V74.93A11.579,11.579,0,0,0,19.094,86.524H50.012A11.579,11.579,0,0,0,61.606,74.93V13.094A11.579,11.579,0,0,0,50.012,1.5ZM42.283,78.795H26.824V74.93H42.283ZM54.843,67.2H14.263V13.094h40.58Z" transform="translate(125.894 286.432)" fill="none" stroke="#333" stroke-width="3"/><g transform="translate(-1414.606 -493)"><g transform="translate(1560.954 805.294)"><line y2="6.648" transform="translate(2.622)" fill="none" stroke="#000" stroke-width="5"/><line y2="6.648" transform="translate(2.622 14.626)" fill="none" stroke="#000" stroke-width="5"/><line y2="6.648" transform="translate(9.51)" fill="none" stroke="#000" stroke-width="3"/><line y2="6.648" transform="translate(9.51 14.626)" fill="none" stroke="#000" stroke-width="3"/><line y2="6.648" transform="translate(19.741)" fill="none" stroke="#000" stroke-width="3"/><line y2="6.648" transform="translate(19.741 14.626)" fill="none" stroke="#000" stroke-width="3"/><line y2="6.648" transform="translate(24.856)" fill="none" stroke="#000" stroke-width="3"/><line y2="6.648" transform="translate(24.856 14.626)" fill="none" stroke="#000" stroke-width="3"/><line y2="6.648" transform="translate(14.386)" fill="none" stroke="#000" stroke-width="1"/><line y2="6.648" transform="translate(14.386 14.626)" fill="none" stroke="#000" stroke-width="1"/><line x2="27.035" transform="translate(0 10.637)" fill="none" stroke="#f30437" stroke-width="2"/></g><rect width="55" height="51" transform="translate(1547.606 790)" fill="none"/></g><g transform="translate(199.923 287.294)"><line y2="18.706" transform="translate(2.623)" fill="none" stroke="#000" stroke-width="5"/><line y2="18.706" transform="translate(10.394)" fill="none" stroke="#000" stroke-width="3"/><line y2="18.706" transform="translate(21.936)" fill="none" stroke="#000" stroke-width="3"/><line y2="18.706" transform="translate(27.707)" fill="none" stroke="#000" stroke-width="3"/><line y2="18.706" transform="translate(15.894)" fill="none" stroke="#000" stroke-width="1"/></g><line y1="5" transform="translate(169.029 278.5)" fill="none" stroke="#333" stroke-linecap="round" stroke-width="3"/><line x1="70.471" transform="translate(169.029 278.5)" fill="none" stroke="#333" stroke-linecap="round" stroke-width="3"/><line y1="55" transform="translate(239.5 278.5)" fill="none" stroke="#333" stroke-linecap="round" stroke-width="3"/><line x2="48" transform="translate(191.5 333.5)" fill="none" stroke="#333" stroke-linecap="round" stroke-width="3"/></g></svg>